<svg xmlns="http://www.w3.org/2000/svg" viewBox="0 0 512 512">
  <defs>
    <linearGradient id="bg" x1="0%" y1="0%" x2="100%" y2="100%">
      <stop offset="0%" stop-color="#132238"/>
      <stop offset="100%" stop-color="#27476e"/>
    </linearGradient>
    <linearGradient id="accent" x1="0%" y1="0%" x2="100%" y2="100%">
      <stop offset="0%" stop-color="#d97706"/>
      <stop offset="100%" stop-color="#b45309"/>
    </linearGradient>
  </defs>
  <rect width="512" height="512" rx="104" fill="url(#bg)"/>
  <rect x="92" y="88" width="328" height="336" rx="40" fill="#ffffff" opacity="0.95"/>
  <path d="M164 174h184" stroke="#d7dfeb" stroke-width="18" stroke-linecap="round"/>
  <path d="M164 238h116" stroke="#d7dfeb" stroke-width="18" stroke-linecap="round"/>
  <path d="M164 302h184" stroke="#d7dfeb" stroke-width="18" stroke-linecap="round"/>
  <circle cx="338" cy="230" r="54" fill="url(#accent)"/>
  <path d="M315 230h46M338 207v46" stroke="#ffffff" stroke-width="18" stroke-linecap="round"/>
  <path d="M172 360c26-18 49-27 70-27 24 0 43 8 59 24 15 16 33 24 54 24 18 0 35-6 51-17" fill="none" stroke="#132238" stroke-width="16" stroke-linecap="round"/>
</svg>
